<svg xmlns="http://www.w3.org/2000/svg" xmlns:xlink="http://www.w3.org/1999/xlink" width="235.65" height="46.74" viewBox="0 0 235.65 46.74">
  <defs>
    <filter id="kanji-nakahashi" x="0" y="0" width="235.65" height="46.74" filterUnits="userSpaceOnUse">
      <feOffset dy="3" input="SourceAlpha"/>
      <feGaussianBlur stdDeviation="3" result="blur"/>
      <feFlood flood-color="#52daff" flood-opacity="0.702"/>
      <feComposite operator="in" in2="blur"/>
      <feComposite in="SourceGraphic"/>
    </filter>
  </defs>
  <g transform="matrix(1, 0, 0, 1, 0, 0)" filter="url(#kanji-nakahashi)">
    <path id="kanji-nakahashi-2" data-name="kanji-nakahashi" d="M1.65-21.87V0h4.8V-5.49L11.34,0H18L11.16-7.23l6.33-6.18H10.98L6.45-8.58V-21.87Zm27.3,9.75a5.307,5.307,0,0,0-4.02-1.74,6.9,6.9,0,0,0-4.83,1.89A7.419,7.419,0,0,0,18.03-6.6a6.765,6.765,0,0,0,1.92,4.92A6.422,6.422,0,0,0,24.78.45a5.009,5.009,0,0,0,4.17-1.92V0h4.8V-13.41h-4.8ZM26.01-9.78a3.073,3.073,0,0,1,2.16.87,2.966,2.966,0,0,1,.93,2.19,2.912,2.912,0,0,1-.9,2.16,3.078,3.078,0,0,1-2.16.93,3.37,3.37,0,0,1-2.16-.9,3.093,3.093,0,0,1-.93-2.19,3.138,3.138,0,0,1,.96-2.19A3.067,3.067,0,0,1,26.01-9.78ZM37.05,0h4.8V-7.2a3.084,3.084,0,0,1,.78-2.13,2.627,2.627,0,0,1,1.77-.63,2.01,2.01,0,0,1,1.53.57,3.85,3.85,0,0,1,.6,2.61V0h4.8V-8.52a4.622,4.622,0,0,0-1.26-3.75,5.423,5.423,0,0,0-3.96-1.44,5.057,5.057,0,0,0-4.26,1.98v-1.68h-4.8ZM54.6-13.41V6.87h4.8V-13.41Zm-.3-5.58a2.689,2.689,0,0,0,2.7,2.7,2.689,2.689,0,0,0,2.7-2.7,2.689,2.689,0,0,0-2.7-2.7A2.689,2.689,0,0,0,54.3-18.99Zm8.37,5.58V0h4.8V-13.41Zm-.3-5.58a2.689,2.689,0,0,0,2.7,2.7,2.689,2.689,0,0,0,2.7-2.7,2.689,2.689,0,0,0-2.7-2.7A2.689,2.689,0,0,0,62.37-18.99ZM77.73,0h4.8V-7.2a3.084,3.084,0,0,1,.78-2.13,2.627,2.627,0,0,1,1.77-.63,2.01,2.01,0,0,1,1.53.57,3.85,3.85,0,0,1,.6,2.61V0h4.8V-8.52a4.622,4.622,0,0,0-1.26-3.75,5.423,5.423,0,0,0-3.96-1.44,5.057,5.057,0,0,0-4.26,1.98v-1.68h-4.8Zm27.93-12.12a5.307,5.307,0,0,0-4.02-1.74,6.9,6.9,0,0,0-4.83,1.89A7.419,7.419,0,0,0,94.74-6.6a6.765,6.765,0,0,0,1.92,4.92A6.422,6.422,0,0,0,101.49.45a5.009,5.009,0,0,0,4.17-1.92V0h4.8V-13.41h-4.8Zm-2.94,2.34a3.073,3.073,0,0,1,2.16.87,2.966,2.966,0,0,1,.93,2.19,2.912,2.912,0,0,1-.9,2.16,3.078,3.078,0,0,1-2.16.93,3.37,3.37,0,0,1-2.16-.9,3.093,3.093,0,0,1-.93-2.19,3.138,3.138,0,0,1,.96-2.19A3.067,3.067,0,0,1,102.72-9.78Zm11.04-12.09V0h4.8V-5.49L123.45,0h6.66l-6.84-7.23,6.33-6.18h-6.51l-4.53,4.83V-21.87Zm27.3,9.75a5.307,5.307,0,0,0-4.02-1.74,6.9,6.9,0,0,0-4.83,1.89,7.419,7.419,0,0,0-2.07,5.37,6.765,6.765,0,0,0,1.92,4.92A6.422,6.422,0,0,0,136.89.45a5.009,5.009,0,0,0,4.17-1.92V0h4.8V-13.41h-4.8Zm-2.94,2.34a3.073,3.073,0,0,1,2.16.87,2.966,2.966,0,0,1,.93,2.19,2.912,2.912,0,0,1-.9,2.16,3.078,3.078,0,0,1-2.16.93,3.37,3.37,0,0,1-2.16-.9,3.093,3.093,0,0,1-.93-2.19,3.138,3.138,0,0,1,.96-2.19A3.067,3.067,0,0,1,138.12-9.78ZM149.16,0h4.8V-7.2a2.92,2.92,0,0,1,.81-2.19,2.572,2.572,0,0,1,1.74-.57,1.9,1.9,0,0,1,1.53.57,3.992,3.992,0,0,1,.6,2.61V0h4.8V-8.52a4.679,4.679,0,0,0-1.26-3.75,5.365,5.365,0,0,0-3.96-1.44,5.4,5.4,0,0,0-2.76.66,5.854,5.854,0,0,0-1.5,1.32V-21.87h-4.8Zm26.82-12.12a5.307,5.307,0,0,0-4.02-1.74,6.9,6.9,0,0,0-4.83,1.89,7.419,7.419,0,0,0-2.07,5.37,6.765,6.765,0,0,0,1.92,4.92A6.422,6.422,0,0,0,171.81.45a5.009,5.009,0,0,0,4.17-1.92V0h4.8V-13.41h-4.8Zm-2.94,2.34a3.073,3.073,0,0,1,2.16.87,2.966,2.966,0,0,1,.93,2.19,2.912,2.912,0,0,1-.9,2.16,3.078,3.078,0,0,1-2.16.93,3.37,3.37,0,0,1-2.16-.9,3.093,3.093,0,0,1-.93-2.19,3.138,3.138,0,0,1,.96-2.19A3.067,3.067,0,0,1,173.04-9.78Zm10.2,8.67a9.894,9.894,0,0,0,5.4,1.56,6.972,6.972,0,0,0,4.95-1.68,4.482,4.482,0,0,0,1.35-3.33,3.792,3.792,0,0,0-1.02-2.67,5.667,5.667,0,0,0-1.98-1.05l-.87-.24c-.75-.21-1.14-.21-1.59-.39a.781.781,0,0,1-.57-.75.719.719,0,0,1,.42-.66,2.027,2.027,0,0,1,1.11-.27,6.642,6.642,0,0,1,2.52.66l1.62-3.06a11.068,11.068,0,0,0-4.29-.87,6.771,6.771,0,0,0-4.8,1.62,4.792,4.792,0,0,0-1.26,3.27,3.244,3.244,0,0,0,.87,2.31,4.315,4.315,0,0,0,2.34,1.17l1.26.3a2.993,2.993,0,0,1,1.26.48.712.712,0,0,1,.24.6.769.769,0,0,1-.24.63,2.035,2.035,0,0,1-1.23.36,6.247,6.247,0,0,1-1.86-.33,6.868,6.868,0,0,1-1.92-.99ZM197.4,0h4.8V-7.2a2.92,2.92,0,0,1,.81-2.19,2.572,2.572,0,0,1,1.74-.57,1.9,1.9,0,0,1,1.53.57,3.992,3.992,0,0,1,.6,2.61V0h4.8V-8.52a4.679,4.679,0,0,0-1.26-3.75,5.365,5.365,0,0,0-3.96-1.44,5.4,5.4,0,0,0-2.76.66,5.854,5.854,0,0,0-1.5,1.32V-21.87h-4.8Zm16.8-13.41V0H219V-13.41Zm-.3-5.58a2.689,2.689,0,0,0,2.7,2.7,2.689,2.689,0,0,0,2.7-2.7,2.689,2.689,0,0,0-2.7-2.7A2.689,2.689,0,0,0,213.9-18.99Z" transform="translate(7.35 27.87)" fill="#fff"/>
  </g>
</svg>
